<svg t="1704864092186" class="icon" viewBox="0 0 1024 1024" version="1.1" xmlns="http://www.w3.org/2000/svg" p-id="6264" width="200" height="200"><path d="M174.208 529.408l77.504-132.992 64.384-142.08q26.112-57.728 79.36-92.032Q448.704 128 512 128q63.36 0 116.544 34.304 53.248 34.304 79.36 92.032l64.384 142.08 77.504 132.992q44.032 75.456 32.128 161.984-11.84 86.592-74.496 147.456l-25.408 24.64q-58.24 56.512-139.328 60.16-72.576 3.2-130.688-37.44-58.112 40.64-130.688 37.44-81.088-3.584-139.328-60.16l-25.408-24.64q-62.72-60.864-74.496-147.456-11.904-86.528 32.128-161.984z m153.408-93.824L247.936 572.352q-29.184 50.048-21.312 107.52 7.808 57.344 49.408 97.728l25.344 24.64q35.008 33.92 83.712 36.16 48.64 2.176 86.528-28.608 17.664-14.272 40.384-14.272t40.32 14.272q37.888 30.72 86.592 28.608 48.704-2.176 83.712-36.16l25.344-24.64q41.6-40.32 49.408-97.792 7.872-57.408-21.312-107.456l-79.68-136.768-66.24-146.048q-15.744-34.816-47.872-55.488Q550.208 213.312 512 213.312q-38.208 0-70.272 20.736-32.128 20.672-47.872 55.488l-65.28 144.064-0.96 1.984z" p-id="6265"></path><path d="M470.592 235.008q8.064-32.32 0-64.64-6.976-27.968-37.504-50.88A42.688 42.688 0 1 1 484.288 51.2q54.784 41.088 69.12 98.432 13.248 53.056 0 106.048a42.688 42.688 0 1 1-82.816-20.672z" p-id="6266"></path><path d="M384 597.312q0 4.224-0.832 8.32-0.832 4.16-2.432 8-1.6 3.904-3.904 7.424-2.368 3.456-5.312 6.4-3.008 3.008-6.464 5.376-3.52 2.304-7.424 3.904-3.84 1.6-8 2.432Q345.6 640 341.312 640q-4.16 0-8.32-0.832-4.096-0.832-8-2.432-3.84-1.6-7.36-3.904-3.52-2.368-6.464-5.312-3.008-3.008-5.312-6.464-2.304-3.52-3.968-7.424-1.6-3.84-2.432-8-0.768-4.096-0.768-8.32 0-4.16 0.768-8.32 0.832-4.096 2.432-8 1.664-3.84 3.968-7.36 2.304-3.52 5.312-6.464 2.944-3.008 6.464-5.312 3.52-2.304 7.36-3.968 3.84-1.6 8-2.432 4.16-0.768 8.32-0.768 4.224 0 8.32 0.768 4.16 0.832 8 2.432 3.904 1.664 7.424 3.968 3.456 2.304 6.4 5.312 3.008 2.944 5.376 6.464 2.304 3.52 3.904 7.36 1.6 3.84 2.432 8 0.832 4.16 0.832 8.32zM426.688 725.312q0 4.224-0.832 8.32-0.832 4.16-2.432 8-1.6 3.904-3.968 7.424-2.304 3.456-5.312 6.4-2.944 3.008-6.4 5.376-3.52 2.304-7.424 3.904-3.84 1.6-8 2.432Q388.224 768 384 768t-8.32-0.832q-4.096-0.832-8-2.432-3.84-1.6-7.36-3.904-3.52-2.368-6.464-5.312-3.008-3.008-5.312-6.464-2.368-3.52-3.968-7.424-1.6-3.84-2.432-8-0.832-4.096-0.832-8.32 0-4.16 0.832-8.32 0.832-4.096 2.432-8 1.6-3.84 3.968-7.36 2.304-3.52 5.312-6.464 2.944-3.008 6.4-5.312 3.52-2.304 7.424-3.968 3.84-1.6 8-2.432 4.096-0.768 8.32-0.768t8.32 0.768q4.096 0.832 8 2.432 3.84 1.664 7.36 3.968 3.52 2.304 6.464 5.312 3.008 2.944 5.312 6.464 2.368 3.52 3.968 7.36 1.6 3.84 2.432 8 0.832 4.16 0.832 8.32zM533.312 640q0 4.224-0.768 8.32-0.832 4.096-2.432 8-1.664 3.84-3.968 7.36-2.368 3.52-5.312 6.464-2.944 3.008-6.4 5.312-3.584 2.368-7.424 3.968-3.84 1.6-8 2.432-4.16 0.832-8.32 0.832-4.224 0-8.32-0.832-4.16-0.832-8-2.432-3.904-1.6-7.424-3.968-3.456-2.304-6.4-5.312-3.008-2.944-5.376-6.4-2.304-3.52-3.904-7.424-1.6-3.84-2.432-8Q448 644.224 448 640t0.832-8.32q0.832-4.096 2.432-8 1.6-3.84 3.904-7.36 2.368-3.52 5.312-6.464 3.008-3.008 6.464-5.312 3.52-2.368 7.424-3.968 3.84-1.6 8-2.432 4.096-0.832 8.32-0.832 4.16 0 8.32 0.832 4.096 0.832 8 2.432 3.84 1.6 7.36 3.968 3.52 2.304 6.464 5.312 2.944 2.944 5.312 6.4 2.304 3.52 3.968 7.424 1.6 3.84 2.432 8 0.768 4.096 0.768 8.32z" p-id="6267"></path></svg>